0
SECTION
2
HEADER
9
$INSUNITS
70
4
9
$ACADVER
1
AC1014
9
$HANDSEED
5
FFFF
0
ENDSEC
0
SECTION
2
TABLES
0
TABLE
2
VPORT
5
8
100
AcDbSymbolTable
0
ENDTAB
0
TABLE
2
LTYPE
5
5
100
AcDbSymbolTable
0
LTYPE
5
14
100
AcDbSymbolTableRecord
100
AcDbLinetypeTableRecord
2
BYBLOCK
70
0
0
LTYPE
5
15
100
AcDbSymbolTableRecord
100
AcDbLinetypeTableRecord
2
BYLAYER
70
0
0
ENDTAB
0
TABLE
2
LAYER
5
2
100
AcDbSymbolTable
70
2
0
LAYER
5
50
100
AcDbSymbolTableRecord
100
AcDbLayerTableRecord
2
0
70
0
6
CONTINUOUS
0
ENDTAB
0
TABLE
2
STYLE
5
3
100
AcDbSymbolTable
70
1
0
STYLE
5
11
100
AcDbSymbolTableRecord
100
AcDbTextStyleTableRecord
2
STANDARD
70
0
0
ENDTAB
0
TABLE
2
VIEW
5
6
100
AcDbSymbolTable
70
0
0
ENDTAB
0
TABLE
2
UCS
5
7
100
AcDbSymbolTable
70
0
0
ENDTAB
0
TABLE
2
APPID
5
9
100
AcDbSymbolTable
70
2
0
APPID
5
12
100
AcDbSymbolTableRecord
100
AcDbRegAppTableRecord
2
ACAD
70
0
0
ENDTAB
0
TABLE
2
DIMSTYLE
5
A
100
AcDbSymbolTable
70
1
0
ENDTAB
0
TABLE
2
BLOCK_RECORD
5
1
100
AcDbSymbolTable
70
1
0
BLOCK_RECORD
5
1F
100
AcDbSymbolTableRecord
100
AcDbBlockTableRecord
2
*MODEL_SPACE
0
BLOCK_RECORD
5
1B
100
AcDbSymbolTableRecord
100
AcDbBlockTableRecord
2
*PAPER_SPACE
0
ENDTAB
0
ENDSEC
0
SECTION
2
BLOCKS
0
BLOCK
5
20
100
AcDbEntity
100
AcDbBlockBegin
2
*MODEL_SPACE
0
ENDBLK
5
21
100
AcDbEntity
100
AcDbBlockEnd
0
BLOCK
5
1C
100
AcDbEntity
100
AcDbBlockBegin
2
*PAPER_SPACE
0
ENDBLK
5
1D
100
AcDbEntity
100
AcDbBlockEnd
0
ENDSEC
0
SECTION
2
ENTITIES
0
LWPOLYLINE
5
100
100
AcDbEntity
8
0
100
AcDbPolyline
90
56
70
1
43
0.0
10
259.72424086425281
20
-321.9241365193194
10
259.72424086425281
20
-326.8824370988383
10
236.52424086456955
20
-326.8824370988383
10
236.52424086456955
20
-331.8824370988383
10
171.52424086456955
20
-331.8824370988383
10
171.52424086456949
20
-326.8824370988383
10
148.32424086425274
20
-326.8824370988383
10
148.32424086425274
20
-321.92413651931935
10
149.42424086425268
20
-321.92413651931935
10
149.42424086425268
20
-319.92413651931935
10
148.32424086425274
20
-319.92413651931935
10
148.32424086425274
20
-318.9241365193194
10
144.72424086425275
20
-318.9241365193194
10
144.72424086425275
20
-319.92413651931935
10
143.6242408642527
20
-319.92413651931935
10
143.6242408642527
20
-321.92413651931935
10
144.72424086425275
20
-321.92413651931935
10
144.72424086425275
20
-326.8824370988383
10
121.52424086456953
20
-326.8824370988383
10
121.52424086456952
20
-331.8824370988383
10
54.024240864238884
20
-331.8824370988383
10
54.024240864238884
20
-336.8824370988383
10
49.024240864271071
20
-336.88243709880658
10
44.024240864271
20
-331.88243709880658
10
44.024240864270503
20
-181.88243709880666
10
49.024240864270432
20
-176.88243709880652
10
54.024240864240305
20
-176.88243709880538
10
54.02424086424034
20
-186.88243709880538
10
79.024240864569492
20
-186.88243709880538
10
79.024240864569492
20
-261.88243709880538
10
84.024240864569492
20
-261.88243709880538
10
84.024240864569535
20
-186.88243709880538
10
324.02424086456949
20
-186.88243709880538
10
324.02424086456949
20
-261.88243709880538
10
329.02424086456949
20
-261.88243709880538
10
329.02424086456949
20
-186.88243709880538
10
354.02424086456881
20
-186.88243709880516
10
354.02424086456881
20
-176.88243709880516
10
359.02424086457046
20
-176.8824370988043
10
364.0242408645704
20
-181.88243709880544
10
364.02424086457097
20
-331.88243709880544
10
359.02424086457103
20
-336.88243709880544
10
354.02424878913882
20
-336.8824370988383
10
354.02424878913877
20
-331.8824370988383
10
286.52424086456949
20
-331.8824370988383
10
286.52424086456949
20
-326.8824370988383
10
263.32424086425277
20
-326.8824370988383
10
263.32424086425277
20
-321.9241365193194
10
264.42424086425274
20
-321.9241365193194
10
264.42424086425274
20
-319.9241365193194
10
263.32424086425277
20
-319.9241365193194
10
263.32424086425277
20
-318.92413651931946
10
259.72424086425281
20
-318.92413651931946
10
259.72424086425281
20
-319.9241365193194
10
258.62424086425273
20
-319.9241365193194
10
258.62424086425273
20
-321.9241365193194
0
CIRCLE
5
101
100
AcDbEntity
8
0
100
AcDbCircle
10
326.52424086425191
20
24.508300579473108
30
0
40
1.5999999999999996
0
CIRCLE
5
102
100
AcDbEntity
8
0
100
AcDbCircle
10
326.52424086425299
20
-112.4916994205271
30
0
40
1.5999999999999996
0
CIRCLE
5
103
100
AcDbEntity
8
0
100
AcDbCircle
10
261.52424086423838
20
-182.49169942051222
30
0
40
1.5999999999999996
0
CIRCLE
5
104
100
AcDbEntity
8
0
100
AcDbCircle
10
146.52424086423844
20
-182.49169942051222
30
0
40
1.5999999999999996
0
CIRCLE
5
105
100
AcDbEntity
8
0
100
AcDbCircle
10
81.524240864253201
20
-112.49169942052687
30
0
40
1.5999999999999996
0
CIRCLE
5
106
100
AcDbEntity
8
0
100
AcDbCircle
10
81.524240864252135
20
24.508300579473257
30
0
40
1.5999999999999996
0
CIRCLE
5
107
100
AcDbEntity
8
0
100
AcDbCircle
10
146.52424086423846
20
95.408300579487559
30
0
40
1.5999999999999996
0
CIRCLE
5
108
100
AcDbEntity
8
0
100
AcDbCircle
10
261.52424086423844
20
95.408300579487559
30
0
40
1.5999999999999996
0
LWPOLYLINE
5
109
100
AcDbEntity
8
0
100
AcDbPolyline
90
36
70
1
43
0.0
10
121.52424086456958
20
-179.99999999999685
10
84.024240864569578
20
-179.99999999999685
10
84.024240864569578
20
-136.74999999999687
10
79.024240864569578
20
-136.74999999999687
10
79.024240864569578
20
-86.749999999996874
10
84.024240864569592
20
-86.749999999996874
10
84.024240864569578
20
-0.24999999999689437
10
79.024240864569578
20
-0.24999999999689493
10
79.024240864569578
20
49.750000000003098
10
84.024240864569578
20
49.750000000003098
10
84.024240864569578
20
93.000000000003098
10
121.52424086456955
20
93.000000000003098
10
121.52424086456953
20
98.000000000003098
10
171.52424086456955
20
98.000000000003098
10
171.52424086456955
20
93.000000000003098
10
236.52424086456955
20
93.000000000003098
10
236.52424086456949
20
98.000000000003098
10
286.52424086456949
20
98.000000000003098
10
286.52424086456949
20
93.000000000003098
10
324.02424086456955
20
93.000000000003112
10
324.02424086456955
20
49.750000000003133
10
329.02424086456955
20
49.750000000003141
10
329.02424086456955
20
-0.24999999999684996
10
324.02424086456955
20
-0.2499999999968594
10
324.02424086456955
20
-86.749999999996845
10
329.02424086456955
20
-86.749999999996845
10
329.02424086456955
20
-136.74999999999685
10
324.02424086456955
20
-136.74999999999685
10
324.02424086456955
20
-179.99999999999685
10
286.52424086456955
20
-179.99999999999685
10
286.52424086456955
20
-184.99999999999685
10
236.52424086456958
20
-184.99999999999685
10
236.52424086456958
20
-179.99999999999685
10
171.52424086456958
20
-179.99999999999685
10
171.52424086456958
20
-184.99999999999685
10
121.52424086456959
20
-184.99999999999685
0
LWPOLYLINE
5
110
100
AcDbEntity
8
0
100
AcDbPolyline
90
56
70
1
43
0.0
10
70.000000000026148
20
-60.691699420511959
10
65.041699420507086
20
-60.69169942051203
10
65.041699420507086
20
-59.591699420512057
10
63.041699420507058
20
-59.591699420512057
10
63.041699420507058
20
-60.69169942051203
10
62.041699420507115
20
-60.69169942051203
10
62.041699420507044
20
-64.291699420512018
10
63.041699420506987
20
-64.291699420512018
10
63.041699420506987
20
-65.39169942051204
10
65.041699420507015
20
-65.39169942051204
10
65.041699420507015
20
-64.291699420512018
10
70.000000000026148
20
-64.291699420511961
10
70.000000000026148
20
-86.749999999996817
10
75.000000000026148
20
-86.749999999996817
10
75.000000000026148
20
-129.99999999999682
10
5.000000000026148
20
-129.99999999999682
10
5.000000000026148
20
-134.99999999999682
10
75.000000000026148
20
-134.99999999999682
10
75.000000000026148
20
-160.00000000003502
10
80.000000000026148
20
-160.00000000003502
10
79.999999999993037
20
-164.99999999999937
10
74.999999999993037
20
-169.99999999999929
10
-75.000000000006963
20
-169.99999999999929
10
-80.000000000006963
20
-164.99999999999929
10
-80.000000000006963
20
-160.00000000000412
10
-70.000000000007319
20
-160.00000000000384
10
-70.00000000000675
20
150.00000000000847
10
-80.000000000006963
20
150.00000000000895
10
-80.000000000006963
20
160.00000000000071
10
-70.000000000006963
20
170.00000000000068
10
69.999999999993037
20
170.00000000000068
10
79.999999999993037
20
160.00000000000071
10
80.000000000026148
20
150.00000313726497
10
75.000000000026148
20
150.00000313726497
10
75.000000000026148
20
148.00000000000679
10
5.000000000026148
20
148.00000000000679
10
5.000000000026148
20
143.00000000000679
10
75.000000000026148
20
143.00000000000679
10
75.000000000026148
20
99.750000000003197
10
70.000000000026148
20
99.750000000003212
10
70.000000000026148
20
76.308300579488218
10
65.041699420507655
20
76.308300579488147
10
65.041699420507655
20
77.408300579488113
10
63.041699420507626
20
77.408300579488113
10
63.041699420507626
20
76.308300579488147
10
62.041699420507683
20
76.308300579488147
10
62.041699420507683
20
72.708300579488153
10
63.041699420507626
20
72.708300579488153
10
63.041699420507626
20
71.60830057948813
10
65.041699420507655
20
71.60830057948813
10
65.041699420507655
20
72.708300579488153
10
70.000000000026148
20
72.708300579488224
10
70.000000000026148
20
49.750000000003205
10
75.000000000026148
20
49.750000000003205
10
75.000000000026148
20
-36.749999999996803
10
70.000000000026148
20
-36.749999999996803
0
LWPOLYLINE
5
111
100
AcDbEntity
8
0
100
AcDbPolyline
90
74
70
1
43
0.0
10
177.52424149420565
20
265.23414359936055
10
183.92419167344013
20
265.23414359936055
42
0.41421356237309503
10
185.92419167344013
20
267.23414359936055
10
185.92419167344013
20
327.31832889564566
10
199.52424149420563
20
327.31832889564566
10
199.52424149420563
20
277.31832889564566
42
0.99999999999999989
10
209.52424149420563
20
277.31832889564566
10
209.52424149420563
20
327.31832889564566
10
228.52424149420557
20
327.31832889564566
10
228.52424149420557
20
267.31832889564566
42
0.99999999999999989
10
232.52424149420557
20
267.31832889564566
10
232.52424149420557
20
327.31832889564566
10
243.92220552844205
20
327.31832889564566
10
243.92220552844208
20
267.23414359936055
42
0.99999999999999989
10
247.92220552844208
20
267.23414359936055
10
247.92220552844208
20
327.31832889564566
10
324.02424086456745
20
327.31832889564566
10
324.02424086456745
20
252.31832889564566
10
329.02424086456745
20
252.31832889564566
10
329.02424086456739
20
327.31832889564566
10
354.02424086456688
20
327.31832889564589
10
354.02424086456699
20
337.31834221601247
10
359.02424086457046
20
337.31834221601247
10
364.02424086457046
20
332.31834221601247
10
364.02424086457046
20
182.31832889561247
10
359.02424086457046
20
177.31832889561247
10
354.02424878913877
20
177.31832889561247
10
354.02424878913877
20
182.31832889561247
10
286.52424086456949
20
182.31832889561247
10
286.52424086456949
20
187.31832889561247
10
263.32424086425311
20
187.31832889561247
10
263.32424086425311
20
192.27662947513039
10
264.42424086425956
20
192.27662947513082
10
264.42424086425956
20
194.27662947513085
10
263.32424086425311
20
194.27662947513079
10
263.32424086425311
20
195.27662947513036
10
259.72424086425315
20
195.27662947513036
10
259.72424086425315
20
194.2766294751307
10
258.62424086425955
20
194.2766294751307
10
258.6242408642596
20
192.27662947513068
10
259.72424086425315
20
192.27662947513073
10
259.72424086425315
20
187.31832889561247
10
236.52424086456949
20
187.31832889561247
10
236.52424086456949
20
182.31832889561247
10
171.52424086456955
20
182.31832889561247
10
171.52424086456955
20
187.31832889561247
10
148.32424086425294
20
187.31832889561247
10
148.32424086425297
20
192.27662947513011
10
149.42424086425964
20
192.27662947513073
10
149.42424086425967
20
194.27662947513079
10
148.32424086425294
20
194.27662947513079
10
148.32424086425297
20
195.27662947513008
10
144.72424086425298
20
195.27662947513008
10
144.72424086425295
20
194.2766294751307
10
143.62424086425963
20
194.2766294751307
10
143.62424086425966
20
192.27662947513068
10
144.72424086425295
20
192.27662947513068
10
144.72424086425295
20
187.31832889561247
10
121.52424086456953
20
187.31832889561247
10
121.52424086456958
20
182.31832889561247
10
54.024240864238955
20
182.31832889561247
10
54.024240864238955
20
177.31832889561247
10
49.024240864270645
20
177.31832889561247
10
44.024240864270574
20
182.31832889561247
10
44.024240864270539
20
332.31834221601247
10
49.024240864270574
20
337.31834221601247
10
54.024240864238529
20
337.31834221601247
10
54.024240864238507
20
327.31832889564555
10
79.024240864567588
20
327.31832889564566
10
79.024240864567588
20
252.31832889564566
10
84.024240864567588
20
252.31832889564566
10
84.024240864567588
20
327.31832889564566
10
175.52424149420568
20
327.31832889564566
10
175.52424149420568
20
267.23414359936055
42
0.41421356237309503
0
LWPOLYLINE
5
112
100
AcDbEntity
8
0
100
AcDbPolyline
90
56
70
1
43
0.0
10
335.04848172910999
20
-64.291699420512458
10
340.006782308629
20
-64.291699420512458
10
340.006782308629
20
-65.391699420512538
10
342.00678230862906
20
-65.391699420512538
10
342.00678230862906
20
-64.291699420512458
10
343.006782308629
20
-64.291699420512458
10
343.006782308629
20
-60.691699420512464
10
342.00678230862906
20
-60.691699420512464
10
342.006782308629
20
-59.591699420512555
10
340.00678230862894
20
-59.591699420512555
10
340.006782308629
20
-60.691699420512464
10
335.04848172910999
20
-60.691699420512464
10
335.04848172910999
20
-36.74999999999681
10
330.04848172910999
20
-36.74999999999681
10
330.04848172910999
20
49.750000000003197
10
335.04848172910999
20
49.750000000003197
10
335.04848172910999
20
72.708300579487783
10
340.00678230862837
20
72.708300579487783
10
340.00678230862837
20
71.608300579487704
10
342.00678230862843
20
71.608300579487704
10
342.00678230862843
20
72.708300579487783
10
343.00678230862837
20
72.708300579487783
10
343.00678230862837
20
76.308300579487778
10
342.00678230862843
20
76.308300579487778
10
342.00678230862843
20
77.408300579487701
10
340.00678230862837
20
77.408300579487701
10
340.00678230862837
20
76.308300579487778
10
335.04848172910999
20
76.308300579487778
10
335.04848172910999
20
99.750000000003197
10
330.04848172910999
20
99.750000000003197
10
330.04848172910999
20
143.00000000000679
10
400.04848172910999
20
143.00000000000679
10
400.04848172910999
20
148.00000000000679
10
330.04848172910999
20
148.00000000000679
10
330.04848172910999
20
150.00000313726497
10
325.04848172910999
20
150.00000313726497
10
325.04848172914308
20
160.0000000000008
10
335.04848172914308
20
170.00000000000071
10
475.04848172914313
20
170.00000000000071
10
485.04848172914313
20
160.00000000000071
10
485.04848172914313
20
150.00000000000884
10
475.04848172914296
20
150.00000000000836
10
475.04848172914353
20
-160.00000000000375
10
485.04848172914313
20
-160.00000000000404
10
485.04848172914313
20
-164.99999999999929
10
480.04848172914313
20
-169.99999999999926
10
330.04848172914308
20
-169.99999999999926
10
325.04848172914308
20
-164.99999999999929
10
325.04848172910999
20
-160.00000000003502
10
330.04848172910999
20
-160.00000000003502
10
330.04848172910999
20
-134.99999999999682
10
400.04848172910999
20
-134.99999999999682
10
400.04848172910999
20
-129.99999999999682
10
330.04848172910999
20
-129.99999999999682
10
330.04848172910999
20
-86.749999999996817
10
335.04848172910999
20
-86.749999999996817
0
ENDSEC
0
SECTION
2
OBJECTS
0
DICTIONARY
5
C
100
AcDbDictionary
3
ACAD_GROUP
350
D
3
ACAD_MLINESTYLE
350
17
0
DICTIONARY
5
D
100
AcDbDictionary
0
DICTIONARY
5
1A
330
C
100
AcDbDictionary
0
DICTIONARY
5
17
100
AcDbDictionary
0
ENDSEC
0
EOF
