0
SECTION
2
HEADER
9
$INSUNITS
70
4
9
$ACADVER
1
AC1014
9
$HANDSEED
5
FFFF
0
ENDSEC
0
SECTION
2
TABLES
0
TABLE
2
VPORT
5
8
100
AcDbSymbolTable
0
ENDTAB
0
TABLE
2
LTYPE
5
5
100
AcDbSymbolTable
0
LTYPE
5
14
100
AcDbSymbolTableRecord
100
AcDbLinetypeTableRecord
2
BYBLOCK
70
0
0
LTYPE
5
15
100
AcDbSymbolTableRecord
100
AcDbLinetypeTableRecord
2
BYLAYER
70
0
0
ENDTAB
0
TABLE
2
LAYER
5
2
100
AcDbSymbolTable
70
2
0
LAYER
5
50
100
AcDbSymbolTableRecord
100
AcDbLayerTableRecord
2
0
70
0
6
CONTINUOUS
0
ENDTAB
0
TABLE
2
STYLE
5
3
100
AcDbSymbolTable
70
1
0
STYLE
5
11
100
AcDbSymbolTableRecord
100
AcDbTextStyleTableRecord
2
STANDARD
70
0
0
ENDTAB
0
TABLE
2
VIEW
5
6
100
AcDbSymbolTable
70
0
0
ENDTAB
0
TABLE
2
UCS
5
7
100
AcDbSymbolTable
70
0
0
ENDTAB
0
TABLE
2
APPID
5
9
100
AcDbSymbolTable
70
2
0
APPID
5
12
100
AcDbSymbolTableRecord
100
AcDbRegAppTableRecord
2
ACAD
70
0
0
ENDTAB
0
TABLE
2
DIMSTYLE
5
A
100
AcDbSymbolTable
70
1
0
ENDTAB
0
TABLE
2
BLOCK_RECORD
5
1
100
AcDbSymbolTable
70
1
0
BLOCK_RECORD
5
1F
100
AcDbSymbolTableRecord
100
AcDbBlockTableRecord
2
*MODEL_SPACE
0
BLOCK_RECORD
5
1B
100
AcDbSymbolTableRecord
100
AcDbBlockTableRecord
2
*PAPER_SPACE
0
ENDTAB
0
ENDSEC
0
SECTION
2
BLOCKS
0
BLOCK
5
20
100
AcDbEntity
100
AcDbBlockBegin
2
*MODEL_SPACE
0
ENDBLK
5
21
100
AcDbEntity
100
AcDbBlockEnd
0
BLOCK
5
1C
100
AcDbEntity
100
AcDbBlockBegin
2
*PAPER_SPACE
0
ENDBLK
5
1D
100
AcDbEntity
100
AcDbBlockEnd
0
ENDSEC
0
SECTION
2
ENTITIES
0
LWPOLYLINE
5
100
100
AcDbEntity
8
0
100
AcDbPolyline
90
26
70
1
43
0.0
10
-119.99999999985042
20
-193.31331204745655
42
-0.095350199422558221
10
-119.71428571413605
20
-191.82869706954023
42
0.19245008972988736
10
-119.71428571413598
20
-189.60177460266567
42
-0.095350199422538612
10
-119.99999999985033
20
-188.11715962474938
10
-120.00000000018034
20
45.204344398199225
10
-114.50000000018034
20
45.204344398199297
10
-114.50000000018034
20
66.204363144617389
10
-120.00000000018034
20
66.204363144617389
10
-119.99999999984972
20
186.28476416395716
42
-0.071427350448345653
10
120.00000000014967
20
186.28476416395696
10
120.00000000017785
20
-171.81327778474912
10
110.30834363078253
20
-171.81327778474909
42
-0.10357241753706636
10
108.70357584184943
20
-171.47725381409248
42
0.20939102403098755
10
106.29642415844978
20
-171.47725381409248
42
-0.10357241753706603
10
104.69165636951669
20
-171.81327778474912
10
50.308343630782645
20
-171.81327778474909
42
-0.10357241753709319
10
48.703575841849506
20
-171.47725381409245
42
0.20939102403097834
10
46.296424158449796
20
-171.47725381409245
42
-0.10357241753709273
10
44.69165636951665
20
-171.81327778474912
10
39.198558305520315
20
-171.81327778474909
10
39.198558305520223
20
-188.12076943791362
42
-0.095210115570361811
10
38.913667845308474
20
-189.60332166545044
42
0.19216217474178807
10
38.913667845308566
20
-191.82715000675557
42
-0.095210115570356885
10
39.198558305520315
20
-193.30970223429239
10
39.198558305520308
20
-203.51523583610299
10
-119.99999999985033
20
-203.51523583610299
0
CIRCLE
5
101
100
AcDbEntity
8
0
100
AcDbCircle
10
-109.75000000018035
20
55.704344398199162
30
0
40
1.5000000000000002
0
CIRCLE
5
102
100
AcDbEntity
8
0
100
AcDbCircle
10
107.39796551338986
20
-50.147323588976356
30
0
40
1
0
CIRCLE
5
103
100
AcDbEntity
8
0
100
AcDbCircle
10
107.39796551338986
20
-64.147323797592605
30
0
40
1
0
CIRCLE
5
104
100
AcDbEntity
8
0
100
AcDbCircle
10
107.39796551338981
20
165.85267620240739
30
0
40
1
0
CIRCLE
5
105
100
AcDbEntity
8
0
100
AcDbCircle
10
107.39796551338981
20
179.85267641102365
30
0
40
1
0
ENDSEC
0
SECTION
2
OBJECTS
0
DICTIONARY
5
C
100
AcDbDictionary
3
ACAD_GROUP
350
D
3
ACAD_MLINESTYLE
350
17
0
DICTIONARY
5
D
100
AcDbDictionary
0
DICTIONARY
5
1A
330
C
100
AcDbDictionary
0
DICTIONARY
5
17
100
AcDbDictionary
0
ENDSEC
0
EOF
