0
SECTION
2
HEADER
9
$INSUNITS
70
4
9
$ACADVER
1
AC1014
9
$HANDSEED
5
FFFF
0
ENDSEC
0
SECTION
2
TABLES
0
TABLE
2
VPORT
5
8
100
AcDbSymbolTable
0
ENDTAB
0
TABLE
2
LTYPE
5
5
100
AcDbSymbolTable
0
LTYPE
5
14
100
AcDbSymbolTableRecord
100
AcDbLinetypeTableRecord
2
BYBLOCK
70
0
0
LTYPE
5
15
100
AcDbSymbolTableRecord
100
AcDbLinetypeTableRecord
2
BYLAYER
70
0
0
ENDTAB
0
TABLE
2
LAYER
5
2
100
AcDbSymbolTable
70
2
0
LAYER
5
50
100
AcDbSymbolTableRecord
100
AcDbLayerTableRecord
2
0
70
0
6
CONTINUOUS
0
ENDTAB
0
TABLE
2
STYLE
5
3
100
AcDbSymbolTable
70
1
0
STYLE
5
11
100
AcDbSymbolTableRecord
100
AcDbTextStyleTableRecord
2
STANDARD
70
0
0
ENDTAB
0
TABLE
2
VIEW
5
6
100
AcDbSymbolTable
70
0
0
ENDTAB
0
TABLE
2
UCS
5
7
100
AcDbSymbolTable
70
0
0
ENDTAB
0
TABLE
2
APPID
5
9
100
AcDbSymbolTable
70
2
0
APPID
5
12
100
AcDbSymbolTableRecord
100
AcDbRegAppTableRecord
2
ACAD
70
0
0
ENDTAB
0
TABLE
2
DIMSTYLE
5
A
100
AcDbSymbolTable
70
1
0
ENDTAB
0
TABLE
2
BLOCK_RECORD
5
1
100
AcDbSymbolTable
70
1
0
BLOCK_RECORD
5
1F
100
AcDbSymbolTableRecord
100
AcDbBlockTableRecord
2
*MODEL_SPACE
0
BLOCK_RECORD
5
1B
100
AcDbSymbolTableRecord
100
AcDbBlockTableRecord
2
*PAPER_SPACE
0
ENDTAB
0
ENDSEC
0
SECTION
2
BLOCKS
0
BLOCK
5
20
100
AcDbEntity
100
AcDbBlockBegin
2
*MODEL_SPACE
0
ENDBLK
5
21
100
AcDbEntity
100
AcDbBlockEnd
0
BLOCK
5
1C
100
AcDbEntity
100
AcDbBlockBegin
2
*PAPER_SPACE
0
ENDBLK
5
1D
100
AcDbEntity
100
AcDbBlockEnd
0
ENDSEC
0
SECTION
2
ENTITIES
0
LWPOLYLINE
5
100
100
AcDbEntity
8
0
100
AcDbPolyline
90
26
70
1
43
0.0
10
-119.99999999985066
20
-193.4133120474566
42
-0.095350199422558221
10
-119.71428571413631
20
-191.92869706954028
42
0.19245008972988736
10
-119.71428571413624
20
-189.70177460266572
42
-0.095350199422538612
10
-119.99999999985057
20
-188.21715962474943
10
-120.00000000018059
20
45.104344398199174
10
-114.50000000018058
20
45.104344398199245
10
-114.50000000018058
20
66.104363144617338
10
-120.00000000018059
20
66.104363144617338
10
-119.99999999984996
20
186.38476416395707
42
-0.071427350448345653
10
120.00000000014943
20
186.38476416395693
10
120.00000000017761
20
-171.91327778474917
10
110.30834363078228
20
-171.91327778474914
42
-0.10357241753706636
10
108.70357584184917
20
-171.57725381409253
42
0.20939102403098755
10
106.29642415844954
20
-171.57725381409253
42
-0.10357241753706603
10
104.69165636951644
20
-171.91327778474917
10
50.308343630782403
20
-171.91327778474914
42
-0.10357241753709319
10
48.703575841849258
20
-171.5772538140925
42
0.20939102403097834
10
46.296424158449547
20
-171.5772538140925
42
-0.10357241753709273
10
44.691656369516402
20
-171.91327778474917
10
39.198558305520066
20
-171.91327778474914
10
39.198558305519974
20
-188.22076943791365
42
-0.095210115570361811
10
38.913667845308225
20
-189.70332166545049
42
0.19216217474178807
10
38.913667845308318
20
-191.92715000675562
42
-0.095210115570356885
10
39.198558305520066
20
-193.40970223429247
10
39.198558305520059
20
-203.61523583610304
10
-119.99999999985057
20
-203.61523583610304
0
CIRCLE
5
101
100
AcDbEntity
8
0
100
AcDbCircle
10
-109.75000000018059
20
55.60434439819911
30
0
40
1.5000000000000002
0
CIRCLE
5
102
100
AcDbEntity
8
0
100
AcDbCircle
10
107.39796551338962
20
-50.247323588976407
30
0
40
1
0
CIRCLE
5
103
100
AcDbEntity
8
0
100
AcDbCircle
10
107.39796551338962
20
-64.247323797592657
30
0
40
1
0
CIRCLE
5
104
100
AcDbEntity
8
0
100
AcDbCircle
10
107.39796551338955
20
165.75267620240734
30
0
40
1
0
CIRCLE
5
105
100
AcDbEntity
8
0
100
AcDbCircle
10
107.39796551338955
20
179.7526764110236
30
0
40
1
0
ENDSEC
0
SECTION
2
OBJECTS
0
DICTIONARY
5
C
100
AcDbDictionary
3
ACAD_GROUP
350
D
3
ACAD_MLINESTYLE
350
17
0
DICTIONARY
5
D
100
AcDbDictionary
0
DICTIONARY
5
1A
330
C
100
AcDbDictionary
0
DICTIONARY
5
17
100
AcDbDictionary
0
ENDSEC
0
EOF
