0
SECTION
2
HEADER
9
$INSUNITS
70
4
9
$ACADVER
1
AC1014
9
$HANDSEED
5
FFFF
0
ENDSEC
0
SECTION
2
TABLES
0
TABLE
2
VPORT
5
8
100
AcDbSymbolTable
0
ENDTAB
0
TABLE
2
LTYPE
5
5
100
AcDbSymbolTable
0
LTYPE
5
14
100
AcDbSymbolTableRecord
100
AcDbLinetypeTableRecord
2
BYBLOCK
70
0
0
LTYPE
5
15
100
AcDbSymbolTableRecord
100
AcDbLinetypeTableRecord
2
BYLAYER
70
0
0
ENDTAB
0
TABLE
2
LAYER
5
2
100
AcDbSymbolTable
70
2
0
LAYER
5
50
100
AcDbSymbolTableRecord
100
AcDbLayerTableRecord
2
0
70
0
6
CONTINUOUS
0
ENDTAB
0
TABLE
2
STYLE
5
3
100
AcDbSymbolTable
70
1
0
STYLE
5
11
100
AcDbSymbolTableRecord
100
AcDbTextStyleTableRecord
2
STANDARD
70
0
0
ENDTAB
0
TABLE
2
VIEW
5
6
100
AcDbSymbolTable
70
0
0
ENDTAB
0
TABLE
2
UCS
5
7
100
AcDbSymbolTable
70
0
0
ENDTAB
0
TABLE
2
APPID
5
9
100
AcDbSymbolTable
70
2
0
APPID
5
12
100
AcDbSymbolTableRecord
100
AcDbRegAppTableRecord
2
ACAD
70
0
0
ENDTAB
0
TABLE
2
DIMSTYLE
5
A
100
AcDbSymbolTable
70
1
0
ENDTAB
0
TABLE
2
BLOCK_RECORD
5
1
100
AcDbSymbolTable
70
1
0
BLOCK_RECORD
5
1F
100
AcDbSymbolTableRecord
100
AcDbBlockTableRecord
2
*MODEL_SPACE
0
BLOCK_RECORD
5
1B
100
AcDbSymbolTableRecord
100
AcDbBlockTableRecord
2
*PAPER_SPACE
0
ENDTAB
0
ENDSEC
0
SECTION
2
BLOCKS
0
BLOCK
5
20
100
AcDbEntity
100
AcDbBlockBegin
2
*MODEL_SPACE
0
ENDBLK
5
21
100
AcDbEntity
100
AcDbBlockEnd
0
BLOCK
5
1C
100
AcDbEntity
100
AcDbBlockBegin
2
*PAPER_SPACE
0
ENDBLK
5
1D
100
AcDbEntity
100
AcDbBlockEnd
0
ENDSEC
0
SECTION
2
ENTITIES
0
LWPOLYLINE
5
100
100
AcDbEntity
8
0
100
AcDbPolyline
90
68
70
1
43
0.0
10
59.299999999832629
20
-63.041706080679418
10
59.299999999832622
20
-62.04170608067983
10
55.699999999832627
20
-62.04170608067983
10
55.699999999832627
20
-63.041706080679489
10
54.599999999839056
20
-63.041706080679489
10
54.599999999839099
20
-65.041706080679518
10
55.699999999832635
20
-65.041706080679589
10
55.699999999832627
20
-70.000006660197869
10
32.500000000148994
20
-70.000006660197869
10
32.500000000148987
20
-75.000006660197869
10
-32.499999999850992
20
-75.000006660197869
10
-32.499999999850985
20
-70.000006660197869
10
-55.700000000167556
20
-70.000006660197727
10
-55.700000000167542
20
-65.041706080680086
10
-54.600000000160868
20
-65.041706080679447
10
-54.600000000160833
20
-63.041706080679418
10
-55.700000000167556
20
-63.041706080679418
10
-55.700000000167542
20
-62.041706080680115
10
-59.300000000167536
20
-62.041706080680115
10
-59.30000000016755
20
-63.041706080679489
10
-60.400000000160887
20
-63.041706080679489
10
-60.400000000160851
20
-65.041706080679518
10
-59.30000000016755
20
-65.04170608067966
10
-59.30000000016755
20
-70.000006660197869
10
-82.499999999850957
20
-70.000006660197869
10
-82.499999999850928
20
-75.000006660197869
10
-150.00000000018156
20
-75.000006660197869
10
-150.00000000018156
20
-80.000006660197869
10
-155.00000000014984
20
-80.000006660197869
10
-160.00000000014992
20
-75.000006660197727
10
-160.00000000014995
20
75.000006660202274
10
-155.00000000014992
20
80.000006660202274
10
-150.00000000018196
20
80.000006660202274
10
-150.00000000018198
20
69.999993339835385
10
-124.99999999985292
20
69.999993339835456
10
-124.99999999985292
20
-5.0000066601645443
10
-119.99999999985292
20
-5.0000066601645443
10
-119.99999999985292
20
69.999993339835456
10
-27.499999370214859
20
69.999993339835456
10
-27.499999370214859
20
9.9999933398354557
42
0.99999999999999989
10
-23.499999370214859
20
9.9999933398354557
10
-23.499999370214859
20
69.999993339835456
10
-4.4999993702148888
20
69.999993339835456
10
-4.4999993702148959
20
19.999993339835456
42
0.99999999999999989
10
5.5000006297851023
20
19.999993339835456
10
5.5000006297851112
20
69.999993339835456
10
24.50000062978507
20
69.999993339835456
10
24.50000062978507
20
9.9999933398354557
42
0.99999999999999989
10
28.500000629785063
20
9.9999933398354557
10
28.500000629785074
20
69.999993339835456
10
120.00000000014697
20
69.999993339835456
10
120.00000000014695
20
-5.0000066601645443
10
125.00000000014695
20
-5.0000066601645443
10
125.00000000014697
20
69.999993339835456
10
150.00000000014643
20
69.999993339835669
10
150.00000000014643
20
80.000006660202274
10
155.0000000001499
20
80.000006660202274
10
160.00000000014992
20
75.000006660202132
10
160.00000000014995
20
-75.000006660197869
10
155.00000000015001
20
-80.000006660197869
10
150.00000792471826
20
-80.000006660197869
10
150.00000792471832
20
-75.000006660197869
10
82.500000000148987
20
-75.000006660197869
10
82.500000000148987
20
-70.000006660197869
10
59.299999999832608
20
-70.000006660197727
10
59.299999999832622
20
-65.041706080679802
10
60.399999999839068
20
-65.041706080679376
10
60.39999999983911
20
-63.041706080679347
0
CIRCLE
5
101
100
AcDbEntity
8
0
100
AcDbCircle
10
122.49999999983135
20
-232.81003497633708
30
0
40
1.5999999999999996
0
CIRCLE
5
102
100
AcDbEntity
8
0
100
AcDbCircle
10
122.49999999983244
20
-369.81003497633731
30
0
40
1.5999999999999996
0
CIRCLE
5
103
100
AcDbEntity
8
0
100
AcDbCircle
10
57.499999999817817
20
-439.81003497632241
30
0
40
1.5999999999999996
0
CIRCLE
5
104
100
AcDbEntity
8
0
100
AcDbCircle
10
-57.500000000182155
20
-439.81003497632241
30
0
40
1.5999999999999996
0
CIRCLE
5
105
100
AcDbEntity
8
0
100
AcDbCircle
10
-122.50000000016738
20
-369.81003497633708
30
0
40
1.5999999999999996
0
CIRCLE
5
106
100
AcDbEntity
8
0
100
AcDbCircle
10
-122.50000000016843
20
-232.81003497633694
30
0
40
1.5999999999999996
0
CIRCLE
5
107
100
AcDbEntity
8
0
100
AcDbCircle
10
-57.500000000182105
20
-161.91003497632266
30
0
40
1.5999999999999996
0
CIRCLE
5
108
100
AcDbEntity
8
0
100
AcDbCircle
10
57.499999999817859
20
-161.91003497632263
30
0
40
1.5999999999999996
0
LWPOLYLINE
5
109
100
AcDbEntity
8
0
100
AcDbPolyline
90
36
70
1
43
0.0
10
-82.499999999850999
20
-437.31833555580704
10
-119.999999999851
20
-437.31833555580704
10
-119.999999999851
20
-394.06833555580704
10
-124.999999999851
20
-394.0683355558071
10
-124.999999999851
20
-344.0683355558071
10
-119.99999999985098
20
-344.06833555580704
10
-119.999999999851
20
-257.5683355558071
10
-124.999999999851
20
-257.56833555580715
10
-124.999999999851
20
-207.56833555580712
10
-119.999999999851
20
-207.5683355558071
10
-119.99999999985104
20
-164.3183355558071
10
-82.499999999851042
20
-164.3183355558071
10
-82.499999999851042
20
-159.31833555580712
10
-32.499999999851042
20
-159.3183355558071
10
-32.499999999851035
20
-164.3183355558071
10
32.500000000148944
20
-164.3183355558071
10
32.500000000148937
20
-159.3183355558071
10
82.50000000014893
20
-159.3183355558071
10
82.500000000148944
20
-164.3183355558071
10
120.00000000014893
20
-164.31833555580707
10
120.00000000014893
20
-207.56833555580704
10
125.00000000014893
20
-207.56833555580704
10
125.00000000014893
20
-257.56833555580704
10
120.00000000014893
20
-257.56833555580704
10
120.00000000014894
20
-344.06833555580704
10
125.00000000014896
20
-344.06833555580704
10
125.00000000014896
20
-394.06833555580704
10
120.00000000014896
20
-394.06833555580704
10
120.00000000014894
20
-437.31833555580704
10
82.500000000148958
20
-437.31833555580704
10
82.500000000148987
20
-442.31833555580704
10
32.500000000148987
20
-442.31833555580704
10
32.500000000148987
20
-437.31833555580704
10
-32.499999999851006
20
-437.31833555580704
10
-32.499999999851006
20
-442.31833555580704
10
-82.499999999850999
20
-442.31833555580704
0
LWPOLYLINE
5
110
100
AcDbEntity
8
0
100
AcDbPolyline
90
56
70
1
43
0.0
10
-134.02424086439439
20
-318.01003497632217
10
-138.98254144391345
20
-318.01003497632223
10
-138.98254144391345
20
-316.91003497632227
10
-140.98254144391348
20
-316.91003497632227
10
-140.98254144391348
20
-318.01003497632223
10
-141.98254144391342
20
-318.01003497632223
10
-141.98254144391348
20
-321.61003497632225
10
-140.98254144391353
20
-321.61003497632225
10
-140.98254144391353
20
-322.71003497632222
10
-138.98254144391353
20
-322.71003497632222
10
-138.98254144391353
20
-321.61003497632225
10
-134.02424086439439
20
-321.61003497632225
10
-134.02424086439439
20
-344.06833555580704
10
-129.02424086439439
20
-344.06833555580704
10
-129.02424086439439
20
-387.31833555580698
10
-199.02424086439439
20
-387.31833555580698
10
-199.02424086439439
20
-392.31833555580698
10
-129.02424086439439
20
-392.31833555580698
10
-129.02424086439439
20
-417.31833555584524
10
-124.02424086439439
20
-417.31833555584524
10
-124.0242408644275
20
-422.31833555580954
10
-129.0242408644275
20
-427.31833555580948
10
-279.0242408644275
20
-427.31833555580948
10
-284.0242408644275
20
-422.31833555580948
10
-284.0242408644275
20
-417.31833555581431
10
-274.02424086442784
20
-417.31833555581403
10
-274.02424086442727
20
-107.31833555580174
10
-284.0242408644275
20
-107.31833555580124
10
-284.0242408644275
20
-97.318335555809483
10
-274.0242408644275
20
-87.318335555809512
10
-134.0242408644275
20
-87.318335555809512
10
-124.0242408644275
20
-97.318335555809483
10
-124.02424086439439
20
-107.31833241854524
10
-129.02424086439439
20
-107.31833241854524
10
-129.02424086439439
20
-109.3183355558034
10
-199.02424086439439
20
-109.3183355558034
10
-199.02424086439439
20
-114.3183355558034
10
-129.02424086439439
20
-114.3183355558034
10
-129.02424086439439
20
-157.56833555580701
10
-134.02424086439439
20
-157.56833555580701
10
-134.02424086439439
20
-181.010034976322
10
-138.98254144391288
20
-181.01003497632206
10
-138.98254144391288
20
-179.91003497632207
10
-140.98254144391291
20
-179.91003497632207
10
-140.98254144391291
20
-181.01003497632206
10
-141.98254144391285
20
-181.01003497632206
10
-141.98254144391285
20
-184.61003497632205
10
-140.98254144391291
20
-184.61003497632205
10
-140.98254144391291
20
-185.71003497632205
10
-138.98254144391288
20
-185.71003497632205
10
-138.98254144391288
20
-184.61003497632205
10
-134.02424086439439
20
-184.61003497632197
10
-134.02424086439439
20
-207.56833555580698
10
-129.02424086439439
20
-207.56833555580698
10
-129.02424086439439
20
-294.06833555580698
10
-134.02424086439439
20
-294.06833555580698
0
LWPOLYLINE
5
111
100
AcDbEntity
8
0
100
AcDbPolyline
90
56
70
1
43
0.0
10
55.699999999832279
20
-579.24247207512963
10
55.699999999832279
20
-584.20077265464852
10
32.500000000149001
20
-584.20077265464852
10
32.500000000148994
20
-589.20077265464852
10
-32.499999999850999
20
-589.20077265464852
10
-32.499999999851006
20
-584.20077265464852
10
-55.700000000167776
20
-584.20077265464852
10
-55.700000000167776
20
-579.24247207512951
10
-54.600000000167839
20
-579.24247207512951
10
-54.600000000167839
20
-577.24247207512951
10
-55.700000000167776
20
-577.24247207512951
10
-55.700000000167776
20
-576.24247207512963
10
-59.300000000167771
20
-576.24247207512963
10
-59.300000000167771
20
-577.24247207512951
10
-60.400000000167822
20
-577.24247207512951
10
-60.400000000167822
20
-579.24247207512951
10
-59.300000000167771
20
-579.24247207512951
10
-59.300000000167756
20
-584.20077265464852
10
-82.499999999850985
20
-584.20077265464852
10
-82.499999999850999
20
-589.20077265464852
10
-150.00000000018164
20
-589.20077265464852
10
-150.00000000018164
20
-594.20077265464852
10
-155.00000000014944
20
-594.2007726546168
10
-160.0000000001495
20
-589.2007726546168
10
-160.00000000015001
20
-439.20077265461686
10
-155.0000000001501
20
-434.20077265461669
10
-150.00000000018022
20
-434.20077265461555
10
-150.00000000018017
20
-444.20077265461555
10
-124.99999999985101
20
-444.20077265461555
10
-124.99999999985101
20
-519.20077265461555
10
-119.99999999985101
20
-519.20077265461555
10
-119.999999999851
20
-444.20077265461555
10
120.00000000014893
20
-444.20077265461555
10
120.00000000014893
20
-519.20077265461555
10
125.00000000014893
20
-519.20077265461555
10
125.00000000014893
20
-444.20077265461555
10
150.00000000014833
20
-444.20077265461538
10
150.0000000001483
20
-434.20077265461538
10
155.00000000014992
20
-434.20077265461452
10
160.00000000014992
20
-439.20077265461566
10
160.00000000015046
20
-589.20077265461566
10
155.00000000015049
20
-594.20077265461566
10
150.00000792471832
20
-594.20077265464852
10
150.00000792471832
20
-589.20077265464852
10
82.500000000149001
20
-589.20077265464852
10
82.500000000149001
20
-584.20077265464852
10
59.299999999832274
20
-584.20077265464852
10
59.299999999832274
20
-579.24247207512963
10
60.399999999832232
20
-579.24247207512963
10
60.399999999832232
20
-577.24247207512963
10
59.299999999832274
20
-577.24247207512963
10
59.299999999832274
20
-576.24247207512963
10
55.699999999832279
20
-576.24247207512963
10
55.699999999832279
20
-577.24247207512963
10
54.599999999832249
20
-577.24247207512963
10
54.599999999832249
20
-579.24247207512963
0
LWPOLYLINE
5
112
100
AcDbEntity
8
0
100
AcDbPolyline
90
56
70
1
43
0.0
10
131.02424086468966
20
-321.61003497632265
10
135.98254144420872
20
-321.61003497632265
10
135.98254144420872
20
-322.71003497632273
10
137.98254144420872
20
-322.71003497632273
10
137.98254144420872
20
-321.61003497632265
10
138.98254144420866
20
-321.61003497632265
10
138.98254144420866
20
-318.01003497632269
10
137.98254144420872
20
-318.01003497632269
10
137.98254144420866
20
-316.91003497632272
10
135.98254144420864
20
-316.91003497632272
10
135.98254144420864
20
-318.01003497632269
10
131.02424086468957
20
-318.01003497632269
10
131.02424086468957
20
-294.06833555580698
10
126.02424086468957
20
-294.06833555580698
10
126.02424086468957
20
-207.56833555580698
10
131.02424086468957
20
-207.56833555580698
10
131.02424086468966
20
-184.61003497632242
10
135.98254144420807
20
-184.61003497632242
10
135.98254144420807
20
-185.71003497632248
10
137.9825414442081
20
-185.71003497632248
10
137.9825414442081
20
-184.61003497632242
10
138.98254144420804
20
-184.61003497632242
10
138.98254144420804
20
-181.0100349763224
10
137.9825414442081
20
-181.0100349763224
10
137.9825414442081
20
-179.91003497632249
10
135.98254144420807
20
-179.91003497632249
10
135.98254144420798
20
-181.0100349763224
10
131.02424086468957
20
-181.0100349763224
10
131.02424086468957
20
-157.56833555580701
10
126.02424086468957
20
-157.56833555580701
10
126.0242408646896
20
-114.3183355558034
10
196.02424086468966
20
-114.3183355558034
10
196.0242408646896
20
-109.3183355558034
10
126.02424086468957
20
-109.3183355558034
10
126.02424086468957
20
-107.31833241854524
10
121.02424086468957
20
-107.31833241854524
10
121.02424086472269
20
-97.318335555809412
10
131.02424086472274
20
-87.318335555809483
10
271.02424086472286
20
-87.318335555809483
10
281.02424086472286
20
-97.318335555809483
10
281.02424086472286
20
-107.31833555580137
10
271.02424086472263
20
-107.31833555580181
10
271.0242408647232
20
-417.31833555581397
10
281.02424086472286
20
-417.31833555581426
10
281.02424086472286
20
-422.31833555580948
10
276.02424086472274
20
-427.31833555580948
10
126.02424086472269
20
-427.31833555580948
10
121.02424086472269
20
-422.31833555580948
10
121.02424086468957
20
-417.31833555584524
10
126.02424086468957
20
-417.31833555584524
10
126.0242408646896
20
-392.31833555580698
10
196.02424086468966
20
-392.31833555580698
10
196.0242408646896
20
-387.31833555580698
10
126.02424086468957
20
-387.31833555580704
10
126.02424086468957
20
-344.06833555580704
10
131.02424086468957
20
-344.06833555580704
0
ENDSEC
0
SECTION
2
OBJECTS
0
DICTIONARY
5
C
100
AcDbDictionary
3
ACAD_GROUP
350
D
3
ACAD_MLINESTYLE
350
17
0
DICTIONARY
5
D
100
AcDbDictionary
0
DICTIONARY
5
1A
330
C
100
AcDbDictionary
0
DICTIONARY
5
17
100
AcDbDictionary
0
ENDSEC
0
EOF
